<svg width="57" height="56" viewBox="0 0 57 56" fill="none" xmlns="http://www.w3.org/2000/svg">
<circle cx="28.7891" cy="28" r="28" fill="#F4F7FE"/>
<path d="M21.0732 24.3136H21.3469C22.4006 24.3136 23.2627 25.1757 23.2627 26.2293V35.8082C23.2627 36.8618 22.4006 37.7239 21.3469 37.7239H21.0732C20.0195 37.7239 19.1574 36.8618 19.1574 35.8082V26.2293C19.1574 25.1757 20.0195 24.3136 21.0732 24.3136ZM28.7363 18.5663C29.7899 18.5663 30.652 19.4284 30.652 20.482V35.8082C30.652 36.8618 29.7899 37.7239 28.7363 37.7239C27.6826 37.7239 26.8205 36.8618 26.8205 35.8082V20.482C26.8205 19.4284 27.6826 18.5663 28.7363 18.5663ZM36.3993 29.5135C37.453 29.5135 38.3151 30.3756 38.3151 31.4293V35.8082C38.3151 36.8618 37.453 37.7239 36.3993 37.7239C35.3456 37.7239 34.4836 36.8618 34.4836 35.8082V31.4293C34.4836 30.3756 35.3456 29.5135 36.3993 29.5135Z" fill="#3D6988"/>
</svg>
