<svg width="57" height="56" viewBox="0 0 57 56" fill="none" xmlns="http://www.w3.org/2000/svg">
<circle cx="28.7891" cy="28" r="28" fill="#3D6988"/>
<path fill-rule="evenodd" clip-rule="evenodd" d="M34.2373 29.3184C35.8356 30.4034 36.9556 31.8734 36.9556 33.8334V37.3334H40.4556C41.0973 37.3334 41.6223 36.8084 41.6223 36.1667V33.8334C41.6223 31.29 37.4573 29.785 34.2373 29.3184Z" fill="white"/>
<path d="M25.289 27.9998C27.8663 27.9998 29.9556 25.9105 29.9556 23.3332C29.9556 20.7558 27.8663 18.6665 25.289 18.6665C22.7117 18.6665 20.6223 20.7558 20.6223 23.3332C20.6223 25.9105 22.7117 27.9998 25.289 27.9998Z" fill="white"/>
<path fill-rule="evenodd" clip-rule="evenodd" d="M32.2892 27.9998C34.8675 27.9998 36.9559 25.9115 36.9559 23.3332C36.9559 20.7548 34.8675 18.6665 32.2892 18.6665C31.7409 18.6665 31.2275 18.7832 30.7375 18.9465C31.7059 20.1482 32.2892 21.6765 32.2892 23.3332C32.2892 24.9898 31.7059 26.5182 30.7375 27.7198C31.2275 27.8832 31.7409 27.9998 32.2892 27.9998Z" fill="white"/>
<path fill-rule="evenodd" clip-rule="evenodd" d="M25.2891 29.1665C22.1741 29.1665 15.9558 30.7298 15.9558 33.8332V36.1665C15.9558 36.8082 16.4808 37.3332 17.1225 37.3332H33.4558C34.0975 37.3332 34.6225 36.8082 34.6225 36.1665V33.8332C34.6225 30.7298 28.4041 29.1665 25.2891 29.1665Z" fill="white"/>
<path fill-rule="evenodd" clip-rule="evenodd" d="M34.2373 29.3184C35.8356 30.4034 36.9556 31.8734 36.9556 33.8334V37.3334H40.4556C41.0973 37.3334 41.6223 36.8084 41.6223 36.1667V33.8334C41.6223 31.29 37.4573 29.785 34.2373 29.3184Z" fill="white"/>
<path d="M25.289 27.9998C27.8663 27.9998 29.9556 25.9105 29.9556 23.3332C29.9556 20.7558 27.8663 18.6665 25.289 18.6665C22.7117 18.6665 20.6223 20.7558 20.6223 23.3332C20.6223 25.9105 22.7117 27.9998 25.289 27.9998Z" fill="white"/>
<path fill-rule="evenodd" clip-rule="evenodd" d="M32.2892 27.9998C34.8675 27.9998 36.9559 25.9115 36.9559 23.3332C36.9559 20.7548 34.8675 18.6665 32.2892 18.6665C31.7409 18.6665 31.2275 18.7832 30.7375 18.9465C31.7059 20.1482 32.2892 21.6765 32.2892 23.3332C32.2892 24.9898 31.7059 26.5182 30.7375 27.7198C31.2275 27.8832 31.7409 27.9998 32.2892 27.9998Z" fill="white"/>
<path fill-rule="evenodd" clip-rule="evenodd" d="M25.2891 29.1665C22.1741 29.1665 15.9558 30.7298 15.9558 33.8332V36.1665C15.9558 36.8082 16.4808 37.3332 17.1225 37.3332H33.4558C34.0975 37.3332 34.6225 36.8082 34.6225 36.1665V33.8332C34.6225 30.7298 28.4041 29.1665 25.2891 29.1665Z" fill="white"/>
</svg>
