<svg width="28" height="28" viewBox="0 0 28 28"  xmlns="http://www.w3.org/2000/svg">
<path fill-rule="evenodd" clip-rule="evenodd" d="M19.4484 15.3183C21.0467 16.4033 22.1667 17.8733 22.1667 19.8333V23.3333H25.6667C26.3084 23.3333 26.8334 22.8083 26.8334 22.1666V19.8333C26.8334 17.29 22.6684 15.785 19.4484 15.3183Z" />
<path d="M10.5 14C13.0773 14 15.1666 11.9106 15.1666 9.33329C15.1666 6.75596 13.0773 4.66663 10.5 4.66663C7.92265 4.66663 5.83331 6.75596 5.83331 9.33329C5.83331 11.9106 7.92265 14 10.5 14Z" />
<path fill-rule="evenodd" clip-rule="evenodd" d="M17.5 14C20.0784 14 22.1667 11.9116 22.1667 9.33329C22.1667 6.75496 20.0784 4.66663 17.5 4.66663C16.9517 4.66663 16.4384 4.78329 15.9484 4.94663C16.9167 6.14829 17.5 7.67663 17.5 9.33329C17.5 10.99 16.9167 12.5183 15.9484 13.72C16.4384 13.8833 16.9517 14 17.5 14Z" />
<path fill-rule="evenodd" clip-rule="evenodd" d="M10.5 15.1666C7.38502 15.1666 1.16669 16.73 1.16669 19.8333V22.1666C1.16669 22.8083 1.69169 23.3333 2.33335 23.3333H18.6667C19.3084 23.3333 19.8334 22.8083 19.8334 22.1666V19.8333C19.8334 16.73 13.615 15.1666 10.5 15.1666Z" />
</svg>
